<svg width="40" height="40" viewBox="0 0 40 40" fill="none" xmlns="http://www.w3.org/2000/svg">
<path d="M31.5045 34.7975C28.8103 35.0889 28.3003 36.947 28.9439 38.2099C31.1647 37.1048 33.1667 35.6354 34.8902 33.8867C34.6721 33.6802 34.3323 34.4939 31.5045 34.7975Z" fill="#4A3D36"/>
<path d="M5.72816 30.6687C6.54134 27.912 7.30599 26.1147 8.76212 24.5724C9.84191 24.8273 10.5946 25.046 11.068 25.5924C10.9463 24.4509 11.0561 21.84 14.0654 21.6335C14.0169 20.0548 14.7449 18.3182 16.6991 17.0552C19.6599 15.1486 19.9152 13.3877 19.9877 13.3512C20.1579 12.3311 19.4904 14.7599 23.3495 16.7516C25.5097 17.8688 26.3954 19.9819 26.42 21.5728C27.3788 21.7306 29.6601 22.4836 28.9925 25.556C29.9879 25.1309 31.2252 24.6209 32.5723 25.0095C33.4826 27.4869 33.4101 27.9606 33.325 30.8508C33.7379 29.94 34.6482 29.4178 34.9514 29.2114C35.5943 29.855 36.0917 30.7051 36.468 31.6766C38.7014 28.4463 40 24.5359 40 20.3098C40 9.25871 31.0437 0.296387 19.9996 0.296387C8.95626 0.296387 0 9.25871 0 20.3098C0 24.2444 1.12833 27.8998 3.0825 30.9966C3.26469 30.3894 3.50738 29.7214 3.87106 28.9806C5.12108 29.7579 5.09717 30.0493 5.72816 30.6687Z" fill="#FBB342"/>
<path d="M25.8495 39.0238C27.0749 37.5058 26.9054 34.737 23.3614 33.7169C21.2258 33.1097 20.4611 32.2839 20.1699 31.7617C20.1333 31.6767 20.0968 31.5917 20.0482 31.5067C19.9638 31.2759 20.0482 32.709 16.6021 33.7533C13.2403 34.7734 12.961 37.518 14.0535 39.0238C14.1625 39.1574 14.4537 39.4003 14.7091 39.5704C14.8547 39.6068 15.0003 39.6432 15.1333 39.6796C15.0242 39.3274 15.0974 37.9552 16.1891 37.2508C17.3301 36.5222 18.8594 35.6599 19.8787 34.5063C20.9099 35.7814 22.767 36.5465 24.041 37.3358C25.1573 38.028 24.9146 39.3274 24.7451 39.7039C24.8788 39.6675 25.0117 39.631 25.158 39.6068C25.4247 39.4246 25.7278 39.1574 25.8495 39.0238Z" fill="#4A3D36"/>
<path d="M23.2038 31.6765C23.277 31.9073 23.5316 32.648 23.6167 32.5508C23.5682 32.3809 23.9319 31.4336 24.8787 31.0328C25.7038 30.6807 26.7478 30.3528 27.6334 29.7577C27.9246 30.8143 28.5436 31.7615 28.9566 32.5873C29.4173 33.4981 29.1022 34.4575 28.9566 34.5667C28.9439 34.7003 29.6234 34.2874 29.8303 34.166C30.9466 33.3766 31.6501 31.2636 29.9759 29.5148C29.1866 28.6891 28.8954 28.0211 28.811 27.5353C28.7744 27.3289 28.811 27.1711 28.7863 26.8917C28.811 26.746 28.7744 27.7175 26.0682 28.0333C23.6526 28.2761 22.8401 30.3528 23.2038 31.6765Z" fill="#4A3D36"/>
<path d="M17.5967 28.422C17.852 28.5798 18.7011 29.0655 18.7011 28.9198C18.5189 28.7984 17.2696 26.8554 18.3494 25.6288C18.9804 24.9123 19.6965 24.4144 20.1453 23.6493C20.7158 24.6087 21.4073 24.888 21.9292 25.6531C22.8156 26.9403 21.5775 28.7134 21.3953 28.8348C21.3953 28.9805 22.3421 28.3855 22.5968 28.2276C23.9924 27.2682 25.3276 25.0216 22.9731 23.2243C19.8175 20.8197 20.1938 18.6217 20.0116 19.3503C19.8175 20.1275 19.7331 20.3583 19.0535 21.3055C18.483 22.0949 18.0335 22.4592 17.124 23.2243C14.842 25.1066 16.1891 27.4869 17.5967 28.422Z" fill="#4A3D36"/>
<path d="M8.61654 34.8827C5.32723 34.5305 4.70821 33.1825 5.12113 33.7654C5.14505 33.7897 5.09651 33.8383 5.08455 33.899C6.83191 35.6842 8.87119 37.1658 11.1285 38.283C11.7715 37.0201 11.2861 35.1741 8.61654 34.8827Z" fill="#4A3D36"/>
<path d="M10.3273 34.0568C10.5341 34.1783 11.2256 34.5669 11.2137 34.4333C11.068 34.3361 10.7156 33.3889 11.1405 32.4659C11.5168 31.6523 12.0873 30.7051 12.342 29.6728C13.2642 30.2679 14.3566 30.5594 15.2184 30.8994C16.1772 31.2637 16.5655 32.1988 16.5289 32.3688C16.614 32.4781 16.8447 31.7252 16.9052 31.4823C17.2084 30.1464 16.3347 28.1063 13.9198 27.9119C12.7788 27.8269 12.1239 27.5112 11.7356 27.2076C11.5773 27.0861 11.4929 26.9282 11.2988 26.7461C11.2137 26.6246 11.8446 27.3655 10.0241 29.4056C8.39775 31.2272 9.17436 33.3039 10.3273 34.0568Z" fill="#4A3D36"/>
</svg>
